<svg width="1024" height="1024" viewBox="0 0 1024 1024" fill="none" xmlns="http://www.w3.org/2000/svg">
<rect width="1024" height="1024" rx="256" fill="url(#paint0_linear_1_25)"/>
<path d="M222.392 244.088C222.392 247.672 224.013 250.744 227.256 253.304C230.499 255.693 234.765 257.912 240.056 259.96C245.347 261.837 251.149 263.8 257.464 265.848C263.949 267.896 270.349 270.371 276.664 273.272C282.979 276.173 288.781 279.843 294.072 284.28C299.363 288.547 303.629 293.923 306.872 300.408C310.115 306.893 311.736 314.744 311.736 323.96C311.736 337.613 308.152 348.792 300.984 357.496C293.987 366.2 284.515 372.685 272.568 376.952C260.792 381.048 247.736 383.096 233.4 383.096C223.672 383.096 213.688 382.157 203.448 380.28C193.379 378.573 183.395 375.928 173.496 372.344L174.776 317.304H204.728L211.384 346.744L206.776 338.808C211.043 340.856 215.736 342.477 220.856 343.672C225.976 344.696 230.925 345.208 235.704 345.208C240.312 345.208 244.493 344.696 248.248 343.672C252.003 342.648 254.989 341.112 257.208 339.064C259.427 336.845 260.536 334.115 260.536 330.872C260.536 326.776 258.915 323.448 255.672 320.888C252.6 318.328 248.419 316.109 243.128 314.232C237.837 312.184 232.035 310.221 225.72 308.344C219.405 306.467 213.091 304.163 206.776 301.432C200.461 298.701 194.659 295.203 189.368 290.936C184.077 286.669 179.811 281.379 176.568 275.064C173.496 268.579 171.96 260.557 171.96 251C171.96 237.859 175.032 227.107 181.176 218.744C187.491 210.211 195.939 203.896 206.52 199.8C217.272 195.533 229.304 193.4 242.616 193.4C252.173 193.4 262.243 194.424 272.824 196.472C283.405 198.349 293.987 201.251 304.568 205.176L301.24 255.096H270.52L263.608 230.008L268.728 234.872C265.144 233.677 261.389 232.824 257.464 232.312C253.709 231.629 249.869 231.288 245.944 231.288C241.677 231.288 237.752 231.715 234.168 232.568C230.584 233.421 227.683 234.787 225.464 236.664C223.416 238.541 222.392 241.016 222.392 244.088ZM395.39 319.864H378.494L388.734 312.184V354.68L381.822 345.208L409.214 353.4V379H320.894V353.4L343.934 344.44L336.254 354.68V222.328L345.214 233.08L320.894 224.12V198.52L389.758 197.24H407.422C422.611 197.24 434.899 199.971 444.286 205.432C453.843 210.723 460.841 217.805 465.278 226.68C469.715 235.555 471.934 245.368 471.934 256.12C471.934 267.555 469.289 278.136 463.998 287.864C458.878 297.592 450.686 305.357 439.422 311.16C428.158 316.963 413.481 319.864 395.39 319.864ZM398.974 234.104H381.054L388.734 226.424V290.424L378.494 282.744H395.39C403.241 282.744 409.043 280.355 412.798 275.576C416.723 270.797 418.686 264.653 418.686 257.144C418.686 249.976 416.979 244.344 413.566 240.248C410.323 236.152 405.459 234.104 398.974 234.104ZM637.134 356.216L624.078 344.44L644.046 353.4V379H563.918V353.4L581.326 345.464L576.718 352.376L569.806 326.52L577.23 332.92H519.886L525.262 327.288L517.838 351.352L516.814 346.488L532.174 353.4V379H461.006V353.4L480.462 344.952L468.942 354.936L527.31 197.752L581.326 196.472L637.134 356.216ZM532.43 303.736L529.358 297.08H569.038L564.174 305.016L544.462 224.12L556.75 224.376L532.43 303.736ZM854.736 222.84L832.72 233.336L839.376 220.28V354.68L832.72 344.696L854.736 353.4V379H775.888V353.4L799.44 344.44L791.248 354.68V252.024L799.184 252.28L763.6 332.152L731.6 333.432L697.808 252.024H705.232V354.68L700.112 345.464L720.848 353.4V379H648.144V353.4L670.16 344.696L663.504 354.68V220.28L670.16 232.824L648.144 224.12V198.52L727.76 197.24L756.688 280.952H750.8L782.032 198.52L854.736 197.24V222.84Z" fill="white"/>
<path d="M219.144 815V789.4L240.904 780.696L234.504 790.68V658.84L242.696 669.336L219.144 660.12V634.52L302.344 633.24V658.84L279.56 669.336L286.984 658.584V711.32L279.304 703.64H346.12L338.44 711.32V658.84L346.12 669.336L323.08 660.12V634.52L406.28 633.24V658.84L384.264 669.08L390.92 658.584V790.68L384.264 780.696L406.28 789.4V815H323.08V789.4L344.584 780.696L338.44 790.68V733.08L346.12 740.76H279.304L286.984 733.08V790.68L280.84 780.696L302.344 789.4V815H219.144ZM586.384 792.216L573.328 780.44L593.296 789.4V815H513.168V789.4L530.576 781.464L525.968 788.376L519.056 762.52L526.48 768.92H469.136L474.512 763.288L467.088 787.352L466.064 782.488L481.424 789.4V815H410.256V789.4L429.712 780.952L418.192 790.936L476.56 633.752L530.576 632.472L586.384 792.216ZM481.68 739.736L478.608 733.08H518.288L513.424 741.016L493.712 660.12L506 660.376L481.68 739.736ZM803.986 658.84L781.97 669.336L788.626 656.28V790.68L781.97 780.696L803.986 789.4V815H725.138V789.4L748.69 780.44L740.498 790.68V688.024L748.434 688.28L712.85 768.152L680.85 769.432L647.058 688.024H654.482V790.68L649.362 781.464L670.098 789.4V815H597.394V789.4L619.41 780.696L612.754 790.68V656.28L619.41 668.824L597.394 660.12V634.52L677.01 633.24L705.938 716.952H700.05L731.282 634.52L803.986 633.24V658.84Z" fill="white"/>
<path d="M482.968 475.266C489.763 475.266 495.708 476.601 500.804 479.27C505.9 481.939 509.904 486.186 512.816 492.01C515.728 497.713 517.184 505.175 517.184 514.396C517.184 521.797 516.092 529.077 513.908 536.236C511.845 543.395 508.691 549.886 504.444 555.71C500.319 561.534 495.041 566.145 488.61 569.542C482.301 572.939 474.899 574.638 466.406 574.638C459.733 574.638 453.787 573.303 448.57 570.634C443.474 567.965 439.47 563.779 436.558 558.076C433.767 552.252 432.372 544.729 432.372 535.508C432.372 527.985 433.403 520.705 435.466 513.668C437.529 506.509 440.623 500.079 444.748 494.376C448.995 488.552 454.273 483.941 460.582 480.544C467.013 477.025 474.475 475.266 482.968 475.266ZM480.966 486.186C475.142 486.186 470.046 487.703 465.678 490.736C461.431 493.769 457.913 497.713 455.122 502.566C452.453 507.419 450.39 512.758 448.934 518.582C447.478 524.285 446.75 529.866 446.75 535.326C446.75 544.426 448.57 551.463 452.21 556.438C455.85 561.291 461.249 563.718 468.408 563.718C474.111 563.718 479.085 562.201 483.332 559.168C487.7 556.135 491.279 552.191 494.07 547.338C496.982 542.363 499.105 537.025 500.44 531.322C501.896 525.498 502.624 519.856 502.624 514.396C502.624 505.296 500.804 498.319 497.164 493.466C493.645 488.613 488.246 486.186 480.966 486.186ZM536.415 573L550.975 481.454L555.889 490.19L536.051 485.276L537.325 477.45L565.353 476.358L558.619 512.03L554.251 519.128C556.799 509.907 560.439 502.081 565.171 495.65C569.903 489.098 575.181 484.063 581.005 480.544C586.829 477.025 592.532 475.266 598.113 475.266C600.782 475.266 603.148 475.63 605.211 476.358L600.661 502.93H591.561L592.107 484.912L593.927 486.732C590.53 486.489 586.89 487.399 583.007 489.462C579.246 491.403 575.545 494.437 571.905 498.562C568.386 502.566 565.292 507.662 562.623 513.85C559.954 520.038 557.952 527.197 556.617 535.326L550.611 573H536.415Z" fill="white"/>
<defs>
<linearGradient id="paint0_linear_1_25" x1="512" y1="0" x2="512" y2="1024" gradientUnits="userSpaceOnUse">
<stop stop-color="#510000"/>
<stop offset="1" stop-color="#9E0000"/>
</linearGradient>
</defs>
</svg>
