<svg width="1024" height="1024" viewBox="0 0 1024 1024" fill="none" xmlns="http://www.w3.org/2000/svg">
<rect width="1024" height="1024" rx="256" fill="url(#paint0_linear_1_25)"/>
<path d="M222.392 244.088C222.392 247.672 224.013 250.744 227.256 253.304C230.499 255.693 234.765 257.912 240.056 259.96C245.347 261.837 251.149 263.8 257.464 265.848C263.949 267.896 270.349 270.371 276.664 273.272C282.979 276.173 288.781 279.843 294.072 284.28C299.363 288.547 303.629 293.923 306.872 300.408C310.115 306.893 311.736 314.744 311.736 323.96C311.736 337.613 308.152 348.792 300.984 357.496C293.987 366.2 284.515 372.685 272.568 376.952C260.792 381.048 247.736 383.096 233.4 383.096C223.672 383.096 213.688 382.157 203.448 380.28C193.379 378.573 183.395 375.928 173.496 372.344L174.776 317.304H204.728L211.384 346.744L206.776 338.808C211.043 340.856 215.736 342.477 220.856 343.672C225.976 344.696 230.925 345.208 235.704 345.208C240.312 345.208 244.493 344.696 248.248 343.672C252.003 342.648 254.989 341.112 257.208 339.064C259.427 336.845 260.536 334.115 260.536 330.872C260.536 326.776 258.915 323.448 255.672 320.888C252.6 318.328 248.419 316.109 243.128 314.232C237.837 312.184 232.035 310.221 225.72 308.344C219.405 306.467 213.091 304.163 206.776 301.432C200.461 298.701 194.659 295.203 189.368 290.936C184.077 286.669 179.811 281.379 176.568 275.064C173.496 268.579 171.96 260.557 171.96 251C171.96 237.859 175.032 227.107 181.176 218.744C187.491 210.211 195.939 203.896 206.52 199.8C217.272 195.533 229.304 193.4 242.616 193.4C252.173 193.4 262.243 194.424 272.824 196.472C283.405 198.349 293.987 201.251 304.568 205.176L301.24 255.096H270.52L263.608 230.008L268.728 234.872C265.144 233.677 261.389 232.824 257.464 232.312C253.709 231.629 249.869 231.288 245.944 231.288C241.677 231.288 237.752 231.715 234.168 232.568C230.584 233.421 227.683 234.787 225.464 236.664C223.416 238.541 222.392 241.016 222.392 244.088ZM395.39 319.864H378.494L388.734 312.184V354.68L381.822 345.208L409.214 353.4V379H320.894V353.4L343.934 344.44L336.254 354.68V222.328L345.214 233.08L320.894 224.12V198.52L389.758 197.24H407.422C422.611 197.24 434.899 199.971 444.286 205.432C453.843 210.723 460.841 217.805 465.278 226.68C469.715 235.555 471.934 245.368 471.934 256.12C471.934 267.555 469.289 278.136 463.998 287.864C458.878 297.592 450.686 305.357 439.422 311.16C428.158 316.963 413.481 319.864 395.39 319.864ZM398.974 234.104H381.054L388.734 226.424V290.424L378.494 282.744H395.39C403.241 282.744 409.043 280.355 412.798 275.576C416.723 270.797 418.686 264.653 418.686 257.144C418.686 249.976 416.979 244.344 413.566 240.248C410.323 236.152 405.459 234.104 398.974 234.104ZM637.134 356.216L624.078 344.44L644.046 353.4V379H563.918V353.4L581.326 345.464L576.718 352.376L569.806 326.52L577.23 332.92H519.886L525.262 327.288L517.838 351.352L516.814 346.488L532.174 353.4V379H461.006V353.4L480.462 344.952L468.942 354.936L527.31 197.752L581.326 196.472L637.134 356.216ZM532.43 303.736L529.358 297.08H569.038L564.174 305.016L544.462 224.12L556.75 224.376L532.43 303.736ZM854.736 222.84L832.72 233.336L839.376 220.28V354.68L832.72 344.696L854.736 353.4V379H775.888V353.4L799.44 344.44L791.248 354.68V252.024L799.184 252.28L763.6 332.152L731.6 333.432L697.808 252.024H705.232V354.68L700.112 345.464L720.848 353.4V379H648.144V353.4L670.16 344.696L663.504 354.68V220.28L670.16 232.824L648.144 224.12V198.52L727.76 197.24L756.688 280.952H750.8L782.032 198.52L854.736 197.24V222.84Z" fill="white"/>
<path d="M219.144 815V789.4L240.904 780.696L234.504 790.68V658.84L242.696 669.336L219.144 660.12V634.52L302.344 633.24V658.84L279.56 669.336L286.984 658.584V711.32L279.304 703.64H346.12L338.44 711.32V658.84L346.12 669.336L323.08 660.12V634.52L406.28 633.24V658.84L384.264 669.08L390.92 658.584V790.68L384.264 780.696L406.28 789.4V815H323.08V789.4L344.584 780.696L338.44 790.68V733.08L346.12 740.76H279.304L286.984 733.08V790.68L280.84 780.696L302.344 789.4V815H219.144ZM586.384 792.216L573.328 780.44L593.296 789.4V815H513.168V789.4L530.576 781.464L525.968 788.376L519.056 762.52L526.48 768.92H469.136L474.512 763.288L467.088 787.352L466.064 782.488L481.424 789.4V815H410.256V789.4L429.712 780.952L418.192 790.936L476.56 633.752L530.576 632.472L586.384 792.216ZM481.68 739.736L478.608 733.08H518.288L513.424 741.016L493.712 660.12L506 660.376L481.68 739.736ZM803.986 658.84L781.97 669.336L788.626 656.28V790.68L781.97 780.696L803.986 789.4V815H725.138V789.4L748.69 780.44L740.498 790.68V688.024L748.434 688.28L712.85 768.152L680.85 769.432L647.058 688.024H654.482V790.68L649.362 781.464L670.098 789.4V815H597.394V789.4L619.41 780.696L612.754 790.68V656.28L619.41 668.824L597.394 660.12V634.52L677.01 633.24L705.938 716.952H700.05L731.282 634.52L803.986 633.24V658.84Z" fill="white"/>
<path d="M482.968 475.266C489.763 475.266 495.708 476.601 500.804 479.27C505.9 481.939 509.904 486.186 512.816 492.01C515.728 497.713 517.184 505.175 517.184 514.396C517.184 521.797 516.092 529.077 513.908 536.236C511.845 543.395 508.691 549.886 504.444 555.71C500.319 561.534 495.041 566.145 488.61 569.542C482.301 572.939 474.899 574.638 466.406 574.638C459.733 574.638 453.787 573.303 448.57 570.634C443.474 567.965 439.47 563.779 436.558 558.076C433.767 552.252 432.372 544.729 432.372 535.508C432.372 527.985 433.403 520.705 435.466 513.668C437.529 506.509 440.623 500.079 444.748 494.376C448.995 488.552 454.273 483.941 460.582 480.544C467.013 477.025 474.475 475.266 482.968 475.266ZM480.966 486.186C475.142 486.186 470.046 487.703 465.678 490.736C461.431 493.769 457.913 497.713 455.122 502.566C452.453 507.419 450.39 512.758 448.934 518.582C447.478 524.285 446.75 529.866 446.75 535.326C446.75 544.426 448.57 551.463 452.21 556.438C455.85 561.291 461.249 563.718 468.408 563.718C474.111 563.718 479.085 562.201 483.332 559.168C487.7 556.135 491.279 552.191 494.07 547.338C496.982 542.363 499.105 537.025 500.44 531.322C501.896 525.498 502.624 519.856 502.624 514.396C502.624 505.296 500.804 498.319 497.164 493.466C493.645 488.613 488.246 486.186 480.966 486.186ZM536.415 573L550.975 481.454L555.889 490.19L536.051 485.276L537.325 477.45L565.353 476.358L558.619 512.03L554.251 519.128C556.799 509.907 560.439 502.081 565.171 495.65C569.903 489.098 575.181 484.063 581.005 480.544C586.829 477.025 592.532 475.266 598.113 475.266C600.782 475.266 603.148 475.63 605.211 476.358L600.661 502.93H591.561L592.107 484.912L593.927 486.732C590.53 486.489 586.89 487.399 583.007 489.462C579.246 491.403 575.545 494.437 571.905 498.562C568.386 502.566 565.292 507.662 562.623 513.85C559.954 520.038 557.952 527.197 556.617 535.326L550.611 573H536.415Z" fill="white"/>
<mask id="mask0_1_25" style="mask-type:alpha" maskUnits="userSpaceOnUse" x="0" y="0" width="1024" height="1024">
<rect width="1024" height="1024" rx="256" fill="url(#paint1_linear_1_25)"/>
</mask>
<g mask="url(#mask0_1_25)">
<rect x="481" y="0.0579834" width="768" height="768" transform="rotate(-45 481 0.0579834)" fill="#FFE0E0"/>
</g>
<path d="M692.346 147.702C688.292 143.648 685.557 139.075 684.143 133.984C682.776 128.94 682.988 123.636 684.78 118.074C686.665 112.511 690.342 106.996 695.81 101.528C700.1 97.2378 704.414 94.0559 708.75 91.9817C713.182 89.9075 717.519 88.8233 721.761 88.729C726.004 88.6347 729.987 89.4125 733.711 91.0624C737.53 92.7124 740.995 95.093 744.106 98.2042C747.123 101.221 749.433 104.568 751.035 108.245C752.685 111.875 753.463 115.717 753.369 119.771C753.322 123.778 752.308 127.856 750.328 132.004C748.396 136.199 745.402 140.324 741.348 144.378C735.786 149.941 730.034 153.665 724.095 155.551C718.249 157.436 712.569 157.695 707.053 156.328C701.585 154.914 696.683 152.039 692.346 147.702ZM697.295 143.459C700.218 146.382 703.636 148.338 707.548 149.328C711.555 150.318 715.845 149.988 720.418 148.338C725.038 146.735 729.822 143.459 734.772 138.509C739.486 133.795 742.621 129.246 744.177 124.862C745.779 120.525 746.086 116.448 745.096 112.629C744.153 108.858 742.197 105.487 739.227 102.518C736.351 99.642 732.957 97.7092 729.044 96.7193C725.226 95.7293 721.031 96.0593 716.458 97.7092C711.932 99.312 707.195 102.588 702.245 107.538C697.531 112.252 694.349 116.801 692.699 121.185C691.096 125.616 690.719 129.718 691.568 133.489C692.511 137.26 694.42 140.583 697.295 143.459ZM721.656 175.74L724.697 172.699L732.263 177.578L730.707 177.719L761.042 147.385L760.971 148.87L754.607 142.506L757.719 139.394L765.143 144.98L763.234 145.193L769.174 139.253C773.605 134.822 777.989 132.7 782.326 132.889C786.757 133.077 790.835 135.034 794.559 138.758C795.785 139.984 796.916 141.351 797.953 142.859C799.037 144.32 800.051 145.994 800.994 147.88L796.185 150.849C795.431 149.435 794.653 148.139 793.852 146.96C793.051 145.782 792.178 144.721 791.236 143.778C788.926 141.468 786.404 140.266 783.67 140.172C780.983 140.125 778.201 141.539 775.326 144.415L768.891 150.849L768.962 148.94L779.78 159.759L775.679 163.577L765.214 153.112L766.699 153.041L736.435 183.306L736.506 181.821L742.587 190.589L739.546 193.629L721.656 175.74ZM747.137 201.22L750.178 198.18L757.744 203.059L756.188 203.2L786.523 172.865L786.452 174.35L780.088 167.986L783.199 164.875L790.624 170.461L788.715 170.673L794.655 164.734C797.577 161.811 800.476 159.902 803.352 159.006C806.322 158.11 809.174 158.087 811.908 158.935C814.642 159.784 817.211 161.41 819.615 163.814C820.558 164.757 821.454 165.794 822.302 166.926C823.198 168.01 824 169.188 824.707 170.461L819.828 173.643C819.309 172.653 818.72 171.781 818.06 171.027C817.447 170.225 816.811 169.495 816.151 168.835C813.935 166.619 811.531 165.535 808.938 165.582C806.345 165.629 803.635 167.067 800.806 169.895L794.372 176.33L794.442 174.421L805.473 185.452L801.372 189.27L790.695 178.593L792.18 178.522L761.916 208.786L761.986 207.301L768.067 216.07L765.027 219.11L747.137 201.22ZM787.118 233.989L787.26 232.575L792.068 240.07L789.028 243.111L772.34 226.423L775.38 223.383L782.876 228.191L781.462 228.332L811.301 198.492L811.231 199.694L806.422 192.341L809.463 189.3L821.059 200.048L787.118 233.989ZM825.444 189.159C824.359 188.074 823.817 186.825 823.817 185.411C823.817 183.997 824.43 182.677 825.656 181.451C826.928 180.178 828.248 179.566 829.615 179.613C831.077 179.66 832.35 180.225 833.434 181.31C834.565 182.441 835.154 183.69 835.202 185.057C835.249 186.424 834.612 187.768 833.292 189.088C832.02 190.361 830.653 190.973 829.191 190.926C827.777 190.832 826.528 190.243 825.444 189.159ZM809.311 264.667C806.294 261.65 804.291 258.185 803.301 254.273C802.405 250.36 802.664 246.282 804.078 242.04C805.54 237.844 808.25 233.767 812.21 229.807C815.651 226.365 819.069 223.891 822.463 222.382C825.952 220.874 829.322 220.143 832.575 220.19C835.828 220.237 838.892 220.944 841.767 222.311C844.737 223.678 847.377 225.517 849.687 227.827C851.572 229.712 853.317 231.975 854.919 234.615C856.569 237.302 857.748 239.895 858.455 242.393L849.333 250.949L845.515 247.131L851.242 239.565L851.172 240.767C850.559 239.023 849.71 237.373 848.626 235.817C847.542 234.262 846.481 232.965 845.444 231.928C842.993 229.477 840.235 227.992 837.171 227.473C834.201 226.955 831.113 227.355 827.908 228.675C824.702 229.995 821.544 232.211 818.433 235.322C815.227 238.528 813.012 241.733 811.786 244.939C810.56 248.144 810.23 251.161 810.796 253.99C811.409 256.865 812.799 259.387 814.968 261.556C816.665 263.253 818.81 264.691 821.403 265.869C823.995 267.048 827.012 267.943 830.454 268.556L829.322 273.647C824.985 273.082 821.143 272.021 817.796 270.465C814.449 268.91 811.621 266.977 809.311 264.667ZM843.535 290.406L843.676 288.992L848.485 296.487L845.444 299.527L828.756 282.84L831.797 279.799L839.292 284.608L837.878 284.749L867.718 254.909L867.647 256.111L862.839 248.757L865.88 245.717L877.476 256.465L843.535 290.406ZM881.86 245.575C880.776 244.491 880.234 243.242 880.234 241.828C880.234 240.413 880.847 239.093 882.072 237.868C883.345 236.595 884.665 235.982 886.032 236.029C887.493 236.076 888.766 236.642 889.85 237.726C890.982 238.858 891.571 240.107 891.618 241.474C891.665 242.841 891.029 244.185 889.709 245.505C888.436 246.777 887.069 247.39 885.608 247.343C884.194 247.249 882.944 246.659 881.86 245.575ZM881.164 328.883L881.518 326.691L886.75 334.47L883.639 337.581L873.315 328.106L879.255 320.469L879.538 321.176C875.201 321.365 871.241 320.846 867.658 319.62C864.123 318.348 861.224 316.58 858.961 314.317C856.227 311.583 854.789 308.401 854.648 304.771C854.506 301.141 856.203 297.559 859.739 294.023C862.52 291.242 865.231 289.71 867.871 289.427C870.558 289.097 873.245 289.663 875.932 291.124C878.619 292.585 881.329 294.683 884.063 297.417L893.326 306.68L891.983 306.751L898.771 299.963C901.364 297.37 902.519 294.848 902.236 292.397C902 289.898 900.68 287.447 898.276 285.043C897.003 283.77 895.495 282.544 893.751 281.366C892.101 280.187 890.192 279.08 888.023 278.042L889.791 277.972L882.649 283.699L878.901 279.952L887.104 270.618C890.686 272.409 893.868 274.271 896.65 276.204C899.478 278.09 901.882 280.022 903.862 282.002C907.633 285.774 909.731 289.568 910.155 293.387C910.674 297.205 909.095 300.953 905.418 304.63L881.164 328.883ZM865.961 299.256C863.651 301.566 862.496 303.805 862.496 305.973C862.544 308.189 863.416 310.145 865.113 311.842C866.763 313.492 869.073 314.812 872.042 315.802C875.107 316.792 878.454 317.358 882.083 317.499L880.174 318.56L889.649 309.084L889.649 310.357L881.235 301.943C877.888 298.596 875.036 296.781 872.679 296.498C870.369 296.168 868.13 297.087 865.961 299.256ZM901.449 348.32L901.591 346.906L906.399 354.401L903.358 357.442L886.6 340.683L889.641 337.643L897.136 342.451L895.792 342.663L942.603 295.853L942.532 297.055L937.653 289.63L940.694 286.59L952.432 297.338L901.449 348.32Z" fill="#5F0000"/>
<defs>
<linearGradient id="paint0_linear_1_25" x1="512" y1="0" x2="512" y2="1024" gradientUnits="userSpaceOnUse">
<stop stop-color="#510000"/>
<stop offset="1" stop-color="#9E0000"/>
</linearGradient>
<linearGradient id="paint1_linear_1_25" x1="512" y1="0" x2="512" y2="1024" gradientUnits="userSpaceOnUse">
<stop stop-color="#510000"/>
<stop offset="1" stop-color="#9E0000"/>
</linearGradient>
</defs>
</svg>
